<svg width="23" height="29" viewBox="0 0 23 29" fill="none" xmlns="http://www.w3.org/2000/svg">
<path d="M11.7222 14.5H21.4444H11.7222ZM21.4444 14.5L17.2777 18.6667L21.4444 14.5ZM21.4444 14.5L17.2777 10.3334L21.4444 14.5Z" fill="#101010"/>
<path d="M11.7222 14.5H21.4444M21.4444 14.5L17.2777 18.6667M21.4444 14.5L17.2777 10.3334" stroke="white" stroke-width="3" stroke-linecap="round" stroke-linejoin="round"/>
<path d="M21.4444 6.16667V4.77778C21.4444 3.24365 20.2008 2 18.6667 2H4.77778C3.24365 2 2 3.24365 2 4.77778V24.2222C2 25.7564 3.24365 27 4.77778 27H18.6667C20.2008 27 21.4444 25.7564 21.4444 24.2222V22.8333" stroke="white" stroke-width="3" stroke-linecap="round" stroke-linejoin="round"/>
</svg>
