<svg width="24" height="24" viewBox="0 0 24 24" fill="none" xmlns="http://www.w3.org/2000/svg">
<path d="M16.4999 15.251C16.3099 15.251 16.1199 15.181 15.9699 15.031L12.4199 11.481L11.3299 13.121C11.2099 13.311 10.9999 13.431 10.7799 13.451C10.6698 13.4622 10.5585 13.4482 10.4546 13.4101C10.3506 13.372 10.2567 13.3107 10.1799 13.231L6.97991 10.031C6.84043 9.88984 6.76221 9.69941 6.76221 9.50098C6.76221 9.30255 6.84043 9.11212 6.97991 8.97098C7.26991 8.68098 7.74991 8.68098 8.03991 8.97098L10.5899 11.521L11.6799 9.88098C11.7999 9.70098 11.9999 9.58098 12.2299 9.55098C12.4599 9.53098 12.6799 9.61098 12.8299 9.77098L17.0299 13.971C17.3199 14.261 17.3199 14.741 17.0299 15.031C16.8799 15.181 16.6899 15.251 16.4999 15.251Z" fill="white"/>
<path d="M16.5 15.25H14.5C14.09 15.25 13.75 14.91 13.75 14.5C13.75 14.09 14.09 13.75 14.5 13.75H15.75V12.5C15.75 12.09 16.09 11.75 16.5 11.75C16.91 11.75 17.25 12.09 17.25 12.5V14.5C17.25 14.91 16.91 15.25 16.5 15.25Z" fill="white"/>
<path d="M15 22.75H9C3.57 22.75 1.25 20.43 1.25 15V9C1.25 3.57 3.57 1.25 9 1.25H15C20.43 1.25 22.75 3.57 22.75 9V15C22.75 20.43 20.43 22.75 15 22.75ZM9 2.75C4.39 2.75 2.75 4.39 2.75 9V15C2.75 19.61 4.39 21.25 9 21.25H15C19.61 21.25 21.25 19.61 21.25 15V9C21.25 4.39 19.61 2.75 15 2.75H9Z" fill="white"/>
</svg>
