<svg width="56" height="51" viewBox="0 0 56 51" fill="none" xmlns="http://www.w3.org/2000/svg">
<path d="M56 25.4294C56 39.4737 43.464 50.8588 28 50.8588C12.536 50.8588 0 39.4737 0 25.4294C0 11.3851 12.536 0 28 0C43.464 0 56 11.3851 56 25.4294ZM10.0778 25.4294C10.0778 34.4188 18.1018 41.7062 28 41.7062C37.8982 41.7062 45.9222 34.4188 45.9222 25.4294C45.9222 16.44 37.8982 9.15259 28 9.15259C18.1018 9.15259 10.0778 16.44 10.0778 25.4294Z" fill="#D9D9D9" fill-opacity="0.02"/>
<path d="M28 0C34.0632 6.56645e-08 39.9625 1.7874 44.8112 5.09351C49.6599 8.39962 53.196 13.0458 54.8878 18.3336C56.5797 23.6214 56.3359 29.265 54.1932 34.4162C52.0505 39.5674 48.1245 43.9477 43.0056 46.8988L37.6048 39.1715C40.8813 37.2826 43.3942 34.4788 44.7657 31.1817C46.1372 27.8845 46.2932 24.2721 45.2103 20.8875C44.1274 17.5029 41.864 14.529 38.7605 12.4128C35.6569 10.2967 31.8809 9.15259 28 9.15259V0Z" fill="url(#paint0_linear_59_538)"/>
<defs>
<linearGradient id="paint0_linear_59_538" x1="28" y1="0" x2="28" y2="50.8588" gradientUnits="userSpaceOnUse">
<stop stop-color="#D6D3FF"/>
<stop offset="1" stop-color="#4F46EF"/>
</linearGradient>
</defs>
</svg>
