<svg width="73" height="69" viewBox="0 0 73 69" fill="none" xmlns="http://www.w3.org/2000/svg">
<path d="M73 34.5C73 53.5538 56.6584 69 36.5 69C16.3416 69 0 53.5538 0 34.5C0 15.4462 16.3416 0 36.5 0C56.6584 0 73 15.4462 73 34.5ZM13.1371 34.5C13.1371 46.6959 23.597 56.5827 36.5 56.5827C49.403 56.5827 59.8629 46.6959 59.8629 34.5C59.8629 22.3041 49.403 12.4173 36.5 12.4173C23.597 12.4173 13.1371 22.3041 13.1371 34.5Z" fill="#D9D9D9" fill-opacity="0.02"/>
<path d="M36.5 0C41.2933 5.40269e-08 46.0396 0.892369 50.4679 2.62616C54.8963 4.35994 58.9201 6.9012 62.3094 10.1048C65.6987 13.3084 68.3873 17.1117 70.2216 21.2974C72.0559 25.4832 73 29.9694 73 34.5C73 39.0306 72.0559 43.5169 70.2216 47.7026C68.3873 51.8883 65.6987 55.6916 62.3094 58.8952C58.9201 62.0988 54.8963 64.6401 50.4679 66.3738C46.0396 68.1076 41.2932 69 36.5 69L36.5 56.5827C39.568 56.5827 42.6061 56.0115 45.4406 54.9018C48.2751 53.792 50.8506 52.1654 53.02 50.1148C55.1895 48.0643 56.9104 45.6299 58.0845 42.9507C59.2586 40.2715 59.8629 37.3999 59.8629 34.5C59.8629 31.6001 59.2586 28.7285 58.0845 26.0493C56.9104 23.3701 55.1895 20.9357 53.02 18.8852C50.8506 16.8346 48.2751 15.208 45.4406 14.0982C42.6061 12.9885 39.5681 12.4173 36.5 12.4173V0Z" fill="url(#paint0_linear_59_528)"/>
<defs>
<linearGradient id="paint0_linear_59_528" x1="36.5" y1="0" x2="36.5" y2="69" gradientUnits="userSpaceOnUse">
<stop stop-color="#D6D3FF"/>
<stop offset="1" stop-color="#4F46EF"/>
</linearGradient>
</defs>
</svg>
