<svg width="73" height="69" viewBox="0 0 73 69" fill="none" xmlns="http://www.w3.org/2000/svg">
<path d="M73 34.5C73 53.5538 56.6584 69 36.5 69C16.3416 69 0 53.5538 0 34.5C0 15.4462 16.3416 0 36.5 0C56.6584 0 73 15.4462 73 34.5ZM13.1371 34.5C13.1371 46.6959 23.597 56.5827 36.5 56.5827C49.403 56.5827 59.8629 46.6959 59.8629 34.5C59.8629 22.3041 49.403 12.4173 36.5 12.4173C23.597 12.4173 13.1371 22.3041 13.1371 34.5Z" fill="#D9D9D9" fill-opacity="0.02"/>
<path d="M36.5 0C43.8263 8.25776e-08 50.983 2.08389 57.0392 5.9806C63.0954 9.87732 67.7709 15.4065 70.4574 21.8489C73.1439 28.2914 73.7172 35.3489 72.1025 42.1034C70.4879 48.858 66.7602 54.9969 61.4042 59.7218C56.0482 64.4466 49.3119 67.5387 42.0715 68.5957C34.8311 69.6527 27.4218 68.6258 20.8072 65.6486C14.1926 62.6713 8.67905 57.8815 4.9836 51.9022C1.28815 45.9229 -0.418107 39.0308 0.0867753 32.1225L13.1927 32.9782C12.8695 37.4001 13.9616 41.8116 16.327 45.6388C18.6924 49.466 22.2215 52.5319 26.4554 54.4375C30.6892 56.3432 35.4318 57.0005 40.0662 56.3239C44.7006 55.6473 49.0124 53.6682 52.4407 50.6439C55.8689 47.6196 58.2549 43.6902 59.2884 39.3668C60.3219 35.0433 59.955 30.526 58.2354 26.4023C56.5158 22.2787 53.5232 18.7395 49.6467 16.2453C45.7702 13.7511 41.1894 12.4173 36.5 12.4173V0Z" fill="url(#paint0_linear_59_510)"/>
<defs>
<linearGradient id="paint0_linear_59_510" x1="36.5" y1="0" x2="36.5" y2="69" gradientUnits="userSpaceOnUse">
<stop stop-color="#D6D3FF"/>
<stop offset="1" stop-color="#E12E43"/>
</linearGradient>
</defs>
</svg>
