<svg width="73" height="69" viewBox="0 0 73 69" fill="none" xmlns="http://www.w3.org/2000/svg">
<path d="M73 34.5C73 53.5538 56.6584 69 36.5 69C16.3416 69 0 53.5538 0 34.5C0 15.4462 16.3416 0 36.5 0C56.6584 0 73 15.4462 73 34.5ZM13.1371 34.5C13.1371 46.6959 23.597 56.5827 36.5 56.5827C49.403 56.5827 59.8629 46.6959 59.8629 34.5C59.8629 22.3041 49.403 12.4173 36.5 12.4173C23.597 12.4173 13.1371 22.3041 13.1371 34.5Z" fill="#D9D9D9" fill-opacity="0.02"/>
<path d="M36.5 0C45.4515 1.00897e-07 54.0909 3.10924 60.7757 8.73656C67.4604 14.3639 71.7242 22.1169 72.7565 30.5214C73.7888 38.926 71.5175 47.3961 66.3746 54.3213C61.2317 61.2466 53.5757 66.1439 44.8622 68.0824C36.1488 70.0208 26.9855 68.8651 19.1147 64.8351C11.2438 60.805 5.21415 54.1815 2.17218 46.224C-0.869784 38.2665 -0.711969 29.5299 2.61562 21.6752C5.94322 13.8204 12.2085 7.39542 20.2204 3.62165L26.0798 14.7354C20.9516 17.1509 16.9413 21.2635 14.8113 26.2911C12.6814 31.3187 12.5804 36.9109 14.5275 42.0043C16.4746 47.0977 20.334 51.3372 25.372 53.9168C30.41 56.4964 36.2752 57.2361 41.8525 55.9954C47.4298 54.7546 52.3302 51.6199 55.6221 47.1872C58.914 42.7545 60.3677 37.333 59.707 31.9534C59.0462 26.5738 56.3171 21.6113 52.0383 18.0094C47.7596 14.4074 42.2297 12.4173 36.5 12.4173V0Z" fill="url(#paint0_linear_59_555)"/>
<defs>
<linearGradient id="paint0_linear_59_555" x1="36.5" y1="0" x2="36.5" y2="69" gradientUnits="userSpaceOnUse">
<stop stop-color="#D6D3FF"/>
<stop offset="1" stop-color="#EB00FF"/>
</linearGradient>
</defs>
</svg>
