<svg width="24" height="24" viewBox="0 0 24 24" fill="none" xmlns="http://www.w3.org/2000/svg">
<path d="M7.50014 15.251C7.31014 15.251 7.12014 15.181 6.97014 15.031C6.83066 14.8898 6.75244 14.6994 6.75244 14.501C6.75244 14.3025 6.83066 14.1121 6.97014 13.971L10.1701 10.771C10.2475 10.6916 10.3417 10.6305 10.4458 10.5923C10.5498 10.5542 10.6611 10.5398 10.7715 10.5504C10.8819 10.5609 10.9884 10.5961 11.0834 10.6533C11.1783 10.7106 11.2592 10.7883 11.3201 10.881L12.4101 12.521L15.9601 8.97098C16.2501 8.68098 16.7301 8.68098 17.0201 8.97098C17.3101 9.26098 17.3101 9.74098 17.0201 10.031L12.8201 14.231C12.7428 14.3104 12.6486 14.3714 12.5445 14.4096C12.4405 14.4478 12.3291 14.4621 12.2188 14.4516C12.1084 14.441 12.0018 14.4058 11.9069 14.3486C11.8119 14.2914 11.731 14.2136 11.6701 14.121L10.5801 12.481L8.03014 15.031C7.88014 15.181 7.69014 15.251 7.50014 15.251Z" fill="#F8F8F8"/>
<path d="M16.5 12.25C16.09 12.25 15.75 11.91 15.75 11.5V10.25H14.5C14.09 10.25 13.75 9.91 13.75 9.5C13.75 9.09 14.09 8.75 14.5 8.75H16.5C16.91 8.75 17.25 9.09 17.25 9.5V11.5C17.25 11.91 16.91 12.25 16.5 12.25Z" fill="#F8F8F8"/>
<path d="M15 22.75H9C3.57 22.75 1.25 20.43 1.25 15V9C1.25 3.57 3.57 1.25 9 1.25H15C20.43 1.25 22.75 3.57 22.75 9V15C22.75 20.43 20.43 22.75 15 22.75ZM9 2.75C4.39 2.75 2.75 4.39 2.75 9V15C2.75 19.61 4.39 21.25 9 21.25H15C19.61 21.25 21.25 19.61 21.25 15V9C21.25 4.39 19.61 2.75 15 2.75H9Z" fill="#F8F8F8"/>
</svg>
