<svg width="285" height="104" viewBox="0 0 285 104" fill="none" xmlns="http://www.w3.org/2000/svg">
<path fill-rule="evenodd" clip-rule="evenodd" d="M0 57.3556L5.24248 47.638C10.485 38.2443 21.2082 18.8092 31.6931 26.5832C42.1781 34.3573 52.663 69.0167 63.3863 74.8472C73.8712 80.6778 84.3562 57.3556 95.0794 55.4121C105.564 53.4686 116.049 72.9037 126.773 67.0732C137.258 61.2426 147.742 30.4703 158.227 32.4138C168.951 34.3573 184.395 64.749 194.88 72.5231C205.603 80.2971 220.534 55.4121 231.019 36.3008C241.743 16.8657 252.291 -5.20059 262.337 1.0948C275.165 9.81146 279.758 26.5832 285 36.3008V46.0184V104H279.758C274.515 104 263.792 104 253.307 104C242.822 104 232.337 104 221.614 104C211.129 104 200.644 104 189.921 104C179.436 104 168.951 104 158.227 104C147.742 104 137.258 104 126.773 104C116.049 104 105.564 104 95.0794 104C84.3562 104 73.8712 104 63.3863 104C52.663 104 42.1781 104 31.6931 104C21.2082 104 10.485 104 5.24248 104H0V57.3556Z" fill="url(#paint0_linear_59_616)" fill-opacity="0.3"/>
<defs>
<linearGradient id="paint0_linear_59_616" x1="142.5" y1="0" x2="142.5" y2="104" gradientUnits="userSpaceOnUse">
<stop stop-color="#EB00FF"/>
<stop offset="1" stop-color="#D6D3FF"/>
</linearGradient>
</defs>
</svg>
